DBRep_DrawableShape

CASCADE Topology V1, (c) Matra-Datavision
Locations 31
1
              1               0               0               0 
              0               1               0               0 
              0               0               1               0 
1
              1               0               0               0 
              0               1               0               0 
              0               0               1               0 
1
              1               0               0               0 
              0               1               0               0 
              0               0               1               0 
1
              1               0               0               0 
              0               1               0               0 
              0               0               1               0 
2  2 1 3 -1 4 1 0
2  4 -1 3 1 2 -1 0
1
              1               0               0               0 
              0               1               0               0 
              0               0               1               0 
2  7 1 4 -1 3 1 2 -1 0
1
              1               0               0               0 
              0               1               0               0 
              0               0               1               0 
1
              1               0               0               0 
              0               1               0               0 
              0               0               1               0 
2  9 1 10 -1 2 1 3 -1 4 1 0
2  4 -1 3 1 2 -1 10 1 9 -1 0
1
              1               0               0               0 
              0               1               0               0 
              0               0               1              60 
2  9 1 10 -1 13 1 2 1 3 -1 4 1 0
2  4 -1 3 1 2 -1 13 -1 10 1 9 -1 0
2  9 1 10 -1 0
2  10 1 9 -1 0
2  9 1 10 -1 13 1 0
2  13 -1 10 1 9 -1 0
2  7 1 4 -1 3 1 2 -1 10 1 9 -1 0
2  7 1 4 -1 3 1 2 -1 13 -1 10 1 9 -1 0
2  10 -1 2 1 3 -1 4 1 0
2  10 -1 13 1 2 1 3 -1 4 1 0
1
              1               0               0               0 
              0               1               0               0 
              0               0               1               0 
2  4 -1 0
1
              0               0               1            1000 
              1               0               0               0 
              0               1               0               0 
1
              1               0               0            1000 
              0               1               0               0 
              0               0               1               0 
2  26 1 3 -1 27 1 4 1 0
2  4 -1 27 -1 3 1 26 -1 0
2  26 -1 0
2  3 -1 27 1 4 1 0
Curve2ds 4
7 0 0  7 8 2  -100 -30  -100.0000000000003 -21.428571428571537  -99.999999999998508 -12.857142857143561  -100.00000000000283 -4.2857142857138344  -99.999999999997229 4.2857142857136932  -100.00000000000162 12.857142857142936  -99.999999999999531 21.428571428571445  -100 30 
 0 8 60 8
7 0 0  1 2 2  100 -29.999999999999972  100 30 
 0 2 60 2
7 0 0  1 2 2  100 -30  -100 -30 
 0 2 200 2
7 0 0  9 10 2  99.999999999999986 30  77.77777777777824 30.000000000000188  55.555555555554747 29.999999999999574  33.333333333333769 30.000000000000561  11.111111111111866 29.999999999999478  -11.111111111112754 30.000000000000405  -33.333333333331638 29.999999999999741  -55.555555555556424 30.000000000000099  -77.777777777777558 30.000000000000011  -99.999999999999986 30 
 0 10 200 10
Curves 24
1 0 0 0 0 0 1 
1 1000 0 0 0 0 1 
1 0 0 0 1 0 0 
1 0 0 0 1 0 0 
1 0 200 0 0 0 1 
1 0 200 0 0 -1 0 
1 0 200 0 0 -1 0 
1 1000 200 0 0 0 1 
1 1000 200 0 0 -1 0 
1 1000 200 0 0 -1 0 
1 0 200 0 1 0 0 
1 0 200 0 1 0 0 
1 1000 0 60 1 0 0 
1 1000 0 -5.3124851585977514e-28 1 0 0 
1 1000 0 0 0 0 1 
1 0 60 0 0 -1 0 
1 1000 200 60 1 0 0 
1 1000 200 0 0 -1 0 
1 200 60 0 -1 0 0 
1 1000 200 -5.3124851585977514e-28 1 0 0 
1 1000 200 0 0 -1 0 
1 0 -5.3124851585977514e-28 0 1 0 0 
1 1000 200 0 0 0 1 
1 200 -5.3124851585977514e-28 0 0 1 0 
Polygon3D 0
PolygonOnTriangulations 48
2 1 2 
p 2.14333333333333 1 0 60 
2 3 4 
p 2.14333333333333 1 0 60 
2 3 4 
p 2.14333333333333 1 0 60 
2 3 4 
p 2.14333333333333 1 0 60 
2 1 3 
p 2.14333333333333 1 0 1000 
2 1 2 
p 2.14333333333333 1 0 1000 
2 2 4 
p 2.14333333333333 1 0 1000 
2 1 2 
p 2.14333333333333 1 0 1000 
2 1 2 
p 2.14333333333333 1 0 60 
2 1 2 
p 2.14333333333333 1 0 60 
2 1 3 
p 2.14333333333333 1 0 200 
2 4 1 
p 2.14333333333333 1 0 200 
2 2 4 
p 2.14333333333333 1 0 200 
2 4 1 
p 2.14333333333333 1 0 200 
2 1 2 
p 2.14333333333333 1 0 60 
2 3 4 
p 2.14333333333333 1 0 60 
2 1 3 
p 2.14333333333333 1 0 200 
2 3 2 
p 2.14333333333333 1 0 200 
2 2 4 
p 2.14333333333333 1 0 200 
2 3 2 
p 2.14333333333333 1 0 200 
2 4 3 
p 2.14333333333333 1 0 1000 
2 1 3 
p 2.14333333333333 1 0 1000 
2 4 3 
p 2.14333333333333 1 0 1000 
2 2 4 
p 2.14333333333333 1 0 1000 
2 1 2 
p 2.14333333333334 1 0 1000 
2 3 4 
p 2.14333333333334 1 0 1000 
2 3 4 
p 2.14333333333334 1 0 1000 
2 1 2 
p 2.14333333333334 1 0 1000 
2 3 4 
p 2.14333333333334 1 0 60 
2 3 1 
p 2.14333333333334 1 0 60 
2 2 4 
p 2.14333333333334 1 0 60 
2 4 1 
p 2.14333333333334 1 0 60 
2 1 2 
p 2.14333333333334 1 0 1000 
2 3 4 
p 2.14333333333334 1 0 1000 
2 2 4 
p 2.14333333333334 1 0 200 
2 1 3 
p 2.14333333333334 1 0 200 
2 2 4 
p 2.14333333333334 1 0 200 
2 3 4 
p 2.14333333333334 1 0 200 
2 3 4 
p 2.14333333333334 1 0 1000 
2 1 2 
p 2.14333333333334 1 0 1000 
2 1 3 
p 2.14333333333334 1 0 200 
2 3 1 
p 2.14333333333334 1 0 200 
2 2 4 
p 2.14333333333334 1 0 200 
2 1 2 
p 2.14333333333334 1 0 200 
2 1 2 
p 2.14333333333334 1 0 60 
2 1 3 
p 2.14333333333334 1 0 60 
2 2 3 
p 2.14333333333334 1 0 60 
2 2 4 
p 2.14333333333334 1 0 60 
Surfaces 12
1 0 0 0 0 1 0 1 0 0 0 0 -1 
9 0 0 0 0 3 3 4 4 2 2 1000 -10.000000000000021 -3.0000000000001492  999.99999999999955 -10.000000000000028 19.00000000000022  1000.0000000000005 -9.9999999999999929 40.999999999999943  1000 -10.000000000000028 62.999999999999993  
999.99999999999955 63.333333333333314 -2.9999999999987317  999.99999999999898 63.333333333333364 19.000000000001815  1000.0000000000001 63.333333333333407 41.000000000000185  999.99999999999955 63.333333333333265 63.000000000000021  
1000 136.66666666666666 -2.9999999999999711  999.99999999999955 136.6666666666666 19  1000.0000000000005 136.66666666666666 40.999999999999929  1000 136.66666666666669 63  
1000 210 -2.9999999999999929  999.99999999999955 209.99999999999994 18.999999999999961  1000.0000000000005 210.00000000000006 41.000000000000014  1000 210 62.999999999999993  

-110.00000000000001 4
110.00000000000001 4

-33.000000000000007 4
33.000000000000007 4

1 0 200 0 1 0 0 0 -1 0 0 0 -1 
1 500 100 0 0 0 1 1 0 0 0 1 0 
1 500 100 0 0 0 1 1 0 0 0 1 0 
1 0 200 0 0 1 0 1 0 0 0 0 -1 
1 1000 0 60 0 1 0 0 0 -1 -1 0 0 
9 0 0 0 0 3 3 4 4 2 2 1000 -10.000000000000021 -3.0000000000001492  999.99999999999955 -10.000000000000028 19.00000000000022  1000.0000000000005 -9.9999999999999929 40.999999999999943  1000 -10.000000000000028 62.999999999999993  
999.99999999999955 63.333333333333314 -2.9999999999987317  999.99999999999898 63.333333333333364 19.000000000001815  1000.0000000000001 63.333333333333407 41.000000000000185  999.99999999999955 63.333333333333265 63.000000000000021  
1000 136.66666666666666 -2.9999999999999711  999.99999999999955 136.6666666666666 19  1000.0000000000005 136.66666666666666 40.999999999999929  1000 136.66666666666669 63  
1000 210 -2.9999999999999929  999.99999999999955 209.99999999999994 18.999999999999961  1000.0000000000005 210.00000000000006 41.000000000000014  1000 210 62.999999999999993  

-110.00000000000001 4
110.00000000000001 4

-33.000000000000007 4
33.000000000000007 4

1 1000 200 60 0 0 -1 0 -1 0 -1 -0 -0 
1 1000 0 -5.3124851585977514e-28 0 0 1 0 1 0 -1 0 0 
1 1000 100 30 1 0 0 0 0 1 0 -1 0 
1 1000 200 -5.3124851585977514e-28 0 -1 0 0 0 1 -1 0 0 
Triangulations 12
4 2 1 0
0 0 0 0 0 60 1000 0 0 1000 0 60 0 0 0 -60 1000 0 1000 -60 3 1 2 3 2 4 
4 2 1 3.5527136788005e-15
0 200 0 0 200 60 0 0 0 0 0 60 0 0 0 -60 200 0 200 -60 4 1 2 3 1 4 
4 2 1 3.98157616419948e-13
1000 200 0 1000 200 60 1000 0 0 1000 0 60 100 -30 100 30 -100 -30 -100 30 2 3 1 2 4 3 
4 2 1 0
0 0 0 1000 0 0 1000 200 0 0 200 0 -500 -100 500 -100 500 100 -500 100 3 1 2 3 4 1 
4 2 1 0
0 0 60 1000 0 60 1000 200 60 0 200 60 -500 -100 500 -100 500 100 -500 100 3 1 2 3 4 1 
4 2 1 0
0 200 0 0 200 60 1000 200 0 1000 200 60 0 0 0 -60 1000 0 1000 -60 3 1 2 3 2 4 
4 2 1 0
1000 0 60 2000 0 60 1000 0 0 2000 0 -5.31248515859775e-28 0 0 0 -1000 60 0 60 -1000 3 1 2 3 2 4 
4 2 1 0
1000 200 60 2000 200 60 1000 0 60 2000 0 60 0 0 0 -1000 200 0 200 -1000 3 1 2 3 2 4 
4 2 1 3.5416567723985e-28
1000 0 0 2000 0 -5.31248515859775e-28 1000 200 0 2000 200 -5.31248515859775e-28 0 0 0 -1000 200 0 200 -1000 3 1 2 3 2 4 
4 2 1 3.98157616419948e-13
1000 200 0 1000 200 60 1000 0 0 1000 0 60 100 -30 100 30 -100 -30 -100 30 2 3 1 2 4 3 
4 2 1 3.5527136788005e-15
1000 0 -5.31248515859775e-28 1000 200 -5.31248515859775e-28 1000 200 60 1000 0 60 -30 100 -30 -100 30 -100 30 100 1 2 3 4 1 3 
4 2 1 0
1000 200 0 2000 200 -5.31248515859775e-28 1000 200 60 2000 200 60 5.31248515859775e-28 0 0 -1000 60 0 60 -1000 3 1 2 3 2 4 

TShapes 69
Ve
1e-07
0 0 0
0 0

0101101
*
Ve
1e-07
0 0 60
0 0

0101101
*
Ed
 1e-07 1 1 0
1  1 0 0 60
6  1 1 6
6  2 2 0
0

0101000
+69 6 -68 6 *
Ve
1e-07
1000 0 0
0 0

0101101
*
Ve
1e-07
1000 0 60
0 0

0101101
*
Ed
 1e-07 1 1 0
1  2 0 0 60
2  1 2 8 0 60
6  3 3 6
6  4 1 6
0

0101000
+66 6 -65 6 *
Ed
 1e-07 1 1 0
1  3 0 0 1000
6  5 1 12
6  6 4 12
0

0101000
+69 12 -66 12 *
Ed
 1e-07 1 1 0
1  4 0 0 1000
6  7 1 15
6  8 5 15
0

0101000
+68 15 -65 15 *
Wi

0101100
+67 5 -64 5 -63 11 +62 14 *
Fa
0  1e-07 1 5
2  1
0101000
+61 0 *
Ve
1e-07
0 200 0
0 0

0101101
*
Ve
1e-07
0 200 60
0 0

0101101
*
Ed
 1e-07 1 1 0
1  5 0 0 60
6  9 2 0
6  10 6 6
0

0101000
+59 6 -58 6 *
Ed
 1e-07 1 1 0
1  6 0 0 200
6  11 2 17
6  12 4 12
0

0101000
+59 12 -69 12 *
Ed
 1e-07 1 1 0
1  7 0 0 200
6  13 2 19
6  14 5 15
0

0101000
+58 15 -68 15 *
Wi

0101100
+57 0 -67 0 -56 16 +55 18 *
Fa
0  1e-07 3 0
2  2
0101000
+54 0 *
Ve
1e-07
1000 200 0
0 0

0101101
*
Ve
1e-07
1000 200 60
0 0

0101101
*
Ed
 1e-07 1 1 0
1  8 0 0 60
2  2 2 8 0 60
6  15 3 6
6  16 6 6
0

0101000
+52 6 -51 6 *
Ed
 1e-07 1 1 0
1  9 0 0 200
2  3 2 20 0 200
6  17 3 12
6  18 4 12
0

0101000
+52 12 -66 12 *
Ed
 1e-07 1 1 0
1  10 0 0 200
2  4 2 21 0 200
6  19 3 15
6  20 5 15
0

0101000
+51 15 -65 15 *
Wi

0101100
-50 5 +49 11 -48 14 +64 5 *
Fa
0  1e-07 2 7
2  3
0101000
-47 0 *
Ed
 1e-07 1 1 0
1  11 0 0 1000
6  21 4 12
6  22 6 12
0

0101000
+59 12 -52 12 *
Wi

0101100
+63 11 -49 11 -45 11 +56 11 *
Fa
0  1e-07 4 22
2  4
0101000
+44 0 *
Ed
 1e-07 1 1 0
1  12 0 0 1000
6  23 5 15
6  24 6 15
0

0101000
+58 15 -51 15 *
Wi

0101100
+62 14 -48 14 -42 14 +55 14 *
Fa
0  1e-07 5 23
2  5
0101000
+41 0 *
Wi

0101100
+57 5 -50 5 -45 11 +42 14 *
Fa
0  1e-07 6 5
2  6
0101000
+39 0 *
Sh

0101100
-60 0 -53 5 +46 0 -43 0 +40 0 +38 0 *
So

0100000
+37 0 *
Ve
1e-07
1000 0 60
0 0

0101101
*
Ve
1e-07
2000 0 60
0 0

0101101
*
Ed
 1e-07 1 1 0
1  13 0 0 1000
6  25 7 25
6  26 8 25
0

0101000
+35 25 -34 25 *
Ve
1e-07
1000 0 0
0 0

0101101
*
Ve
1e-07
2000 0 -5.31248515859775e-28
0 0

0101101
*
Ed
 1e-07 1 1 0
1  14 0 0 1000
6  27 7 25
6  28 9 25
0

0101000
+32 25 -31 25 *
Ed
 1e-07 1 1 0
1  15 0 0 60
2  1 8 8 0 60
6  29 10 6
6  30 7 6
0

0101000
+32 6 -35 6 *
Ed
 1e-07 1 1 0
1  16 0 0 60
6  31 7 29
6  32 11 30
0

0101000
+34 29 -31 29 *
Wi

0101100
+33 4 -30 4 +29 5 +28 28 *
Fa
0  1e-07 7 4
2  7
0101000
+27 0 *
Ve
1e-07
1000 200 60
0 0

0101101
*
Ve
1e-07
2000 200 60
0 0

0101101
*
Ed
 1e-07 1 1 0
1  17 0 0 1000
6  33 8 25
6  34 12 25
0

0101000
+25 25 -24 25 *
Ed
 1e-07 1 1 0
1  18 0 0 200
2  4 8 21 0 200
6  35 10 15
6  36 8 15
0

0101000
+25 15 -35 15 *
Ed
 1e-07 1 1 0
1  19 0 0 200
6  37 8 29
6  38 11 30
0

0101000
+24 29 -34 29 *
Wi

0101100
+23 4 -33 4 -22 14 +21 28 *
Fa
0  1e-07 9 4
2  8
0101000
+20 0 *
Ve
1e-07
1000 200 0
0 0

0101101
*
Ve
1e-07
2000 200 -5.31248515859775e-28
0 0

0101101
*
Ed
 1e-07 1 1 0
1  20 0 0 1000
6  39 9 25
6  40 12 25
0

0101000
+18 25 -17 25 *
Ed
 1e-07 1 1 0
1  21 0 0 200
2  3 8 20 0 200
6  41 10 12
6  42 9 12
0

0101000
+18 12 -32 12 *
Ed
 1e-07 1 1 0
1  22 0 0 200
6  43 9 29
6  44 11 30
0

0101000
+31 29 -17 29 *
Wi

0101100
+30 4 -16 4 +15 11 +14 28 *
Fa
0  1e-07 10 4
2  9
0101000
+13 0 *
Ed
 1e-07 1 1 0
1  23 0 0 60
2  2 8 8 0 60
6  45 10 6
6  46 12 6
0

0101000
+18 6 -25 6 *
Wi

0101100
-11 5 +15 11 -22 14 +29 5 *
Fa
0  1e-07 8 7
2  10
0101000
-10 0 *
Ed
 1e-07 1 1 0
1  24 0 0 60
6  47 11 30
6  48 12 29
0

0101000
+17 29 -24 29 *
Wi

0101100
+14 0 +8 0 +21 0 +28 0 *
Fa
0  1e-07 11 0
2  11
0101000
+7 26 *
Wi

0101100
+16 4 -23 4 -11 5 +8 28 *
Fa
0  1e-07 12 4
2  12
0101000
+5 0 *
Sh

0101100
-26 0 -19 0 -12 0 -9 0 +6 31 -4 0 *
So

0100000
+3 0 *
Co

1100000
+36 1 +2 24 *

+1 0 