DBRep_DrawableShape

CASCADE Topology V1, (c) Matra-Datavision
Locations 23
1
              1               0               0               0 
              0               1               0               0 
              0               0               1               0 
1
              1               0               0               0 
              0               1               0               0 
              0               0               1               0 
1
              1               0               0               0 
              0               1               0               0 
              0               0               1               0 
1
              1               0               0               0 
              0               1               0               0 
              0               0               1               0 
2  2 1 3 1 4 -1 0
1
              1               0               0               0 
              0               1               0               0 
              0               0               1               5 
2  2 1 3 1 4 -1 6 1 0
2  4 1 3 -1 2 -1 0
2  3 -1 2 -1 0
2  6 -1 4 1 3 -1 2 -1 0
1
              1               0               0               0 
              0               1               0               0 
              0               0               1               0 
1
              1               0               0               0 
              0               1               0               0 
              0               0               1               0 
2  11 1 12 -1 2 -1 0
1
              1               0               0               0 
              0               1               0               0 
              0               0               1              10 
2  14 -1 11 1 12 -1 2 -1 0
1
              1               0               0               0 
              0               1               0               0 
              0               0               1               0 
1
              1               0               0               0 
              0               1               0               0 
              0               0               1               0 
2  16 1 17 -1 2 -1 0
1
              1               0               0               0 
              0               1               0               0 
              0               0               1               5 
2  19 -1 16 1 17 -1 2 -1 0
2  4 -1 0
2  2 1 3 1 0
2  4 -1 6 1 0
Curve2ds 8
1 5.3558900891779855 0 0 -1 
1 4.7123889803846897 0 0 -1 
1 0 0 1 0 
1 0 -10 1 0 
1 0 0 1 0 
1 0 -5 1 0 
1 0 0 1 0 
1 0 -5 1 0 
Curves 12
1 127.50000000000023 25.000000000000167 0 0 0 1 
1 145 25.000000000000167 0 0 0 1 
1 127.50000000000023 25.000000000000167 0 1 0 0 
1 145 0 0 0 0 1 
1 145 25.000000000000167 0 0 -1 0 
1 0 0 0 0 0 1 
1 145 0 0 -1 0 0 
1 0 20 0 0 0 1 
1 0 0 0 0 1 0 
1 112.5 20 0 0 0 1 
1 0 20 0 1 0 0 
2 112.5 45 0 0 0 1 1 0 -0 -0 1 0 25
Polygon3D 0
PolygonOnTriangulations 30
2 8 7 
p 0.116666668405136 1 0 5 
2 1 2 
p 0.116666668405136 1 0 5 
2 4 3 
p 0.116666668405136 1 0 5 
2 1 2 
p 0.116666668405136 1 0 5 
2 1 4 
p 0.116666668405136 1 0 17.4999999999998 
2 1 2 
p 0.116666668405136 1 0 17.4999999999998 
2 2 3 
p 0.116666668405136 1 0 17.4999999999998 
2 4 3 
p 0.116666668405136 1 0 5 
2 1 2 
p 0.116666668405136 1 0 5 
2 1 4 
p 0.116666668405136 1 0 25.0000000000002 
2 2 3 
p 0.116666668405136 1 0 25.0000000000002 
2 2 3 
p 0.116666668405136 1 0 25.0000000000002 
2 4 3 
p 0.116666668405136 1 0 5 
2 1 2 
p 0.116666668405136 1 0 5 
2 1 4 
p 0.116666668405136 1 0 145 
2 3 4 
p 0.116666668405136 1 0 145 
2 2 3 
p 0.116666668405136 1 0 145 
2 4 3 
p 0.116666668405136 1 0 5 
2 1 2 
p 0.116666668405136 1 0 5 
2 1 4 
p 0.116666668405136 1 0 20 
2 4 5 
p 0.116666668405136 1 0 20 
2 2 3 
p 0.116666668405136 1 0 20 
2 1 2 
p 0.116666668405136 1 0 5 
2 4 3 
p 0.116666668405136 1 0 5 
2 1 4 
p 0.116666668405136 1 0 112.5 
2 5 6 
p 0.116666668405136 1 0 112.5 
2 2 3 
p 0.116666668405136 1 0 112.5 
6 1 9 10 11 12 8 
p 0.116666668405136 1 4.71238898038469 4.84108920214335 4.96978942390201 5.09848964566067 5.22718986741932 5.35589008917798 
6 6 7 8 9 10 1 
p 0.116666668405136 1 4.71238898038469 4.84108920214335 4.96978942390201 5.09848964566067 5.22718986741932 5.35589008917798 
6 2 3 4 5 6 7 
p 0.116666668405136 1 4.71238898038469 4.84108920214335 4.96978942390201 5.09848964566067 5.22718986741932 5.35589008917798 
Surfaces 9
1 127.50000000000023 25.000000000000167 0 0 1 0 1 0 0 0 0 -1 
2 112.5 45 0 -0 -0 -1 1 0 0 -0 1 -0 25
1 145 25.000000000000167 0 1 0 -0 0 -1 0 0 -0 -1 
1 145 0 0 0 -1 0 -1 0 0 -0 -0 -1 
1 0 0 0 -1 0 0 0 1 0 0 0 -1 
1 0 20 0 0 1 0 1 0 0 0 0 -1 
2 112.5 45 0 -0 -0 -1 1 0 0 -0 1 -0 25
2 112.5 45 0 -0 -0 -1 1 0 0 -0 1 -0 25
1 73.739522774298194 10.562819639490606 0 -0 -0 -1 -1 0 0 0 1 -0 
Triangulations 7
4 2 1 0.116666668405136
127.5 25.0000000000002 0 127.5 25.0000000000002 5 145 25.0000000000002 5 145 25.0000000000002 0 0 0 0 -5 17.4999999999998 -5 17.4999999999998 0 3 1 2 4 1 3 
12 10 1 0.116666668405136
112.5 20 0 112.5 20 5 115.708630572618 20.2067612069649 5 118.864187518844 20.8236248121232 5 121.914475097651 21.840387338392 5 124.809038817727 23.2402306220012 5 127.5 25.0000000000002 5 127.5 25.0000000000002 0 115.708630572618 20.2067612069649 0 118.864187518844 20.8236248121232 0 121.914475097651 21.840387338392 0 124.809038817727 23.2402306220012 0 4.71238898038469 0 4.71238898038469 -5 4.84108920214335 -5 4.96978942390201 -5 5.09848964566067 -5 5.22718986741932 -5 5.35589008917799 -5 5.35589008917798 0 4.84108920214335 0 4.96978942390201 0 5.09848964566067 0 5.22718986741932 0 9 1 2 9 2 3 10 3 4 10 4 5 10 9 3 11 10 5 12 5 6 12 11 5 8 6 7 8 12 6 
4 2 1 0.116666668405136
145 25.0000000000002 0 145 25.0000000000002 5 145 0 5 145 0 0 0 0 0 -5 25.0000000000002 -5 25.0000000000002 0 4 1 2 4 2 3 
10 8 1 0.116666668405136
127.5 25.0000000000002 0 145 25.0000000000002 0 145 0 0 0 0 0 0 20 0 112.5 20 0 115.708630572618 20.2067612069649 0 118.864187518844 20.8236248121232 0 121.914475097651 21.840387338392 0 124.809038817727 23.2402306220012 0 -53.760477225702 14.4371803605095 -71.2604772257018 14.4371803605096 -71.2604772257018 -10.5628196394906 73.7395227742982 -10.5628196394906 73.7395227742982 9.43718036050939 -38.7604772257018 9.43718036050939 -41.9691077983199 9.6439415674743 -45.1246647445462 10.2608051726326 -48.1749523233526 11.2775676989014 -51.0695160434285 12.6774109825106 1 2 3 10 1 3 9 10 3 8 9 3 7 8 3 6 7 3 4 6 3 5 6 4 
4 2 1 0.116666668405136
145 0 0 145 0 5 0 0 5 0 0 0 0 0 0 -5 145 -5 145 0 4 1 2 4 2 3 
4 2 1 0.116666668405136
0 0 0 0 0 5 0 20 5 0 20 0 0 0 0 -5 20 -5 20 0 4 1 2 4 2 3 
4 2 1 0.116666668405136
0 20 0 0 20 5 112.5 20 5 112.5 20 0 0 0 0 -5 112.5 -5 112.5 0 3 1 2 4 1 3 

TShapes 35
Ve
1e-07
127.5 25.0000000000002 0
0 0

0101101
*
Ed
 1e-07 1 1 0
1  1 0 0 5
2  1 2 0 0 5
6  1 2 0
6  2 1 0
0

0101000
+35 5 -35 7 *
Ve
1e-07
145 25.0000000000002 0
0 0

0101101
*
Ed
 1e-07 1 1 0
1  2 0 0 5
6  3 1 0
6  4 3 0
0

0101000
+33 5 -33 7 *
Ed
 1e-07 1 1 0
1  3 0 0 17.4999999999998
6  5 1 8
6  6 4 9
6  7 1 10
0

0101000
+35 0 -33 0 *
Wi

0101100
+34 0 -32 0 -31 5 +31 7 *
Fa
0  1e-07 1 0
2  1
0101000
+30 0 *
Ve
1e-07
145 0 0
0 0

0101101
*
Ed
 1e-07 1 1 0
1  4 0 0 5
6  8 3 0
6  9 5 0
0

0101000
+28 5 -28 7 *
Ed
 1e-07 1 1 0
1  5 0 0 25.0000000000002
6  10 3 8
6  11 4 9
6  12 3 10
0

0101000
+33 0 -28 0 *
Wi

0101100
+32 0 -27 0 -26 5 +26 7 *
Fa
0  1e-07 3 0
2  3
0101000
+25 0 *
Ve
1e-07
0 0 0
0 0

0101101
*
Ed
 1e-07 1 1 0
1  6 0 0 5
6  13 5 0
6  14 6 0
0

0101000
+23 5 -23 7 *
Ed
 1e-07 1 1 0
1  7 0 0 145
6  15 5 8
6  16 4 9
6  17 5 10
0

0101000
+28 0 -23 0 *
Wi

0101100
+27 0 -22 0 -21 5 +21 7 *
Fa
0  1e-07 4 0
2  5
0101000
+20 0 *
Ve
1e-07
0 20 0
0 0

0101101
*
Ed
 1e-07 1 1 0
1  8 0 0 5
6  18 6 0
6  19 7 0
0

0101000
+18 5 -18 7 *
Ed
 1e-07 1 1 0
1  9 0 0 20
6  20 6 8
6  21 4 9
6  22 6 10
0

0101000
+23 0 -18 0 *
Wi

0101100
+22 0 -17 0 -16 5 +16 7 *
Fa
0  1e-07 5 0
2  6
0101000
+15 0 *
Ve
1e-07
112.5 20 0
0 0

0101101
*
Ed
 1e-07 1 1 0
1  10 0 0 5
2  2 2 0 0 5
4 G1 6 0 2 0
6  23 2 0
6  24 7 0
0

0101000
+13 5 -13 7 *
Ed
 1e-07 1 1 0
1  11 0 0 112.5
6  25 7 8
6  26 4 9
6  27 7 10
0

0101000
+18 0 -13 0 *
Wi

0101100
+17 0 -12 0 -11 5 +11 7 *
Fa
0  1e-07 6 0
2  7
0101000
+10 0 *
Ed
 1e-07 1 1 0
1  12 0 4.71238898038469 5.35589008917798
2  3 7 13 4.71238898038469 5.35589008917798
2  4 7 15 4.71238898038469 5.35589008917798
2  5 8 18 4.71238898038469 5.35589008917798
2  6 8 20 4.71238898038469 5.35589008917798
2  7 2 8 4.71238898038469 5.35589008917798
2  8 2 10 4.71238898038469 5.35589008917798
6  28 2 8
6  29 4 9
6  30 2 10
0

0101000
+13 0 -35 0 *
Wi

0101100
+12 0 -34 0 -8 5 +8 7 *
Fa
0  1e-07 2 0
2  2
0101000
+7 0 *
Wi

0101100
+31 0 +26 0 +21 0 +16 0 +11 0 +8 0 *
Fa
0  1e-07 9 0
2  4
0101000
+5 22 *
Sh

0101100
+29 0 +24 0 +19 0 +14 0 +9 0 +6 0 +4 21 -4 23 *
So

0100000
+3 0 *
Co

1100000
+2 1 *

+1 0 