DBRep_DrawableShape

CASCADE Topology V1, (c) Matra-Datavision
Locations 9
1
              1               0               0               0 
              0               1               0               0 
              0               0               1               0 
1
              1               0               0               0 
              0               1               0               0 
              0               0               1               0 
2  2 -1 0
1
              1               0               0               0 
              0               1               0               0 
              0               0               1               0 
1
              1               0               0               0 
              0               1               0               0 
              0               0               1               0 
1
              1               0               0               0 
              0               1               0               0 
              0               0               1               0 
2  4 1 5 1 6 -1 0
2  6 1 5 -1 4 -1 0
2  2 -1 6 1 5 -1 4 -1 0
Curve2ds 4
1 0 0 1 0 
1 0 3 1 0 
1 6.2831853071795862 0 0 1 
1 0 0 0 1 
Curves 3
2 0 0 0 1 0 0 0 1 0 0 0 1 3.2000000000000002
2 3 0 0 1 0 0 0 1 0 0 0 1 3.2000000000000002
1 0 3.2000000000000002 0 1 0 0 
Polygon3D 0
PolygonOnTriangulations 6
56 1 2 3 4 5 6 7 8 9 10 11 12 13 14 15 16 17 18 19 20 21 22 23 24 25 26 27 28 29 30 31 32 33 34 35 36 37 38 39 40 41 42 43 44 45 46 47 48 49 50 51 52 53 54 55 56 
p 0.0105333334902922 1 0 0.114239732857811 0.228479465715621 0.342719198573432 0.456958931431243 0.571198664289053 0.685438397146864 0.799678130004675 0.913917862862485 1.0281575957203 1.14239732857811 1.25663706143592 1.37087679429373 1.48511652715154 1.59935626000935 1.71359599286716 1.82783572572497 1.94207545858278 2.05631519144059 2.1705549242984 2.28479465715621 2.39903439001402 2.51327412287184 2.62751385572965 2.74175358858746 2.85599332144527 2.97023305430308 3.08447278716089 3.1987125200187 3.31295225287651 3.42719198573432 3.54143171859213 3.65567145144994 3.76991118430775 3.88415091716557 3.99839065002338 4.11263038288119 4.226870115739 4.34110984859681 4.45534958145462 4.56958931431243 4.68382904717024 4.79806878002805 4.91230851288586 5.02654824574367 5.14078797860148 5.25502771145929 5.3692674443171 5.48350717717491 5.59774691003272 5.71198664289053 5.82622637574834 5.94046610860615 6.05470584146396 6.16894557432177 6.28318530717959 
56 1 2 3 4 5 6 7 8 9 10 11 12 13 14 15 16 17 18 19 20 21 22 23 24 25 26 27 28 29 30 31 32 33 34 35 36 37 38 39 40 41 42 43 44 45 46 47 48 49 50 51 52 53 54 55 1 
p 0.0105333334902922 1 0 0.114239732857811 0.228479465715621 0.342719198573432 0.456958931431243 0.571198664289053 0.685438397146864 0.799678130004675 0.913917862862485 1.0281575957203 1.14239732857811 1.25663706143592 1.37087679429373 1.48511652715154 1.59935626000935 1.71359599286716 1.82783572572497 1.94207545858278 2.05631519144059 2.1705549242984 2.28479465715621 2.39903439001402 2.51327412287184 2.62751385572965 2.74175358858746 2.85599332144527 2.97023305430308 3.08447278716089 3.1987125200187 3.31295225287651 3.42719198573432 3.54143171859213 3.65567145144994 3.76991118430775 3.88415091716557 3.99839065002338 4.11263038288119 4.226870115739 4.34110984859681 4.45534958145462 4.56958931431243 4.68382904717024 4.79806878002805 4.91230851288586 5.02654824574367 5.14078797860148 5.25502771145929 5.3692674443171 5.48350717717491 5.59774691003272 5.71198664289053 5.82622637574834 5.94046610860615 6.05470584146396 6.16894557432177 6.28318530717959 
56 58 59 60 61 62 63 64 65 66 67 68 69 70 71 72 73 74 75 76 77 78 79 80 81 82 83 84 85 86 87 88 89 90 91 92 93 94 95 96 97 98 99 100 101 102 103 104 105 106 107 108 109 110 111 112 57 
p 0.0105333334902922 1 0 0.114239732857811 0.228479465715621 0.342719198573432 0.456958931431243 0.571198664289053 0.685438397146864 0.799678130004675 0.913917862862485 1.0281575957203 1.14239732857811 1.25663706143592 1.37087679429373 1.48511652715154 1.59935626000935 1.71359599286716 1.82783572572497 1.94207545858278 2.05631519144059 2.1705549242984 2.28479465715621 2.39903439001402 2.51327412287184 2.62751385572965 2.74175358858746 2.85599332144527 2.97023305430308 3.08447278716089 3.1987125200187 3.31295225287651 3.42719198573432 3.54143171859213 3.65567145144994 3.76991118430775 3.88415091716557 3.99839065002338 4.11263038288119 4.226870115739 4.34110984859681 4.45534958145462 4.56958931431243 4.68382904717024 4.79806878002805 4.91230851288586 5.02654824574367 5.14078797860148 5.25502771145929 5.3692674443171 5.48350717717491 5.59774691003272 5.71198664289053 5.82622637574834 5.94046610860615 6.05470584146396 6.16894557432177 6.28318530717959 
56 1 2 3 4 5 6 7 8 9 10 11 12 13 14 15 16 17 18 19 20 21 22 23 24 25 26 27 28 29 30 31 32 33 34 35 36 37 38 39 40 41 42 43 44 45 46 47 48 49 50 51 52 53 54 55 1 
p 0.0105333334902922 1 0 0.114239732857811 0.228479465715621 0.342719198573432 0.456958931431243 0.571198664289053 0.685438397146864 0.799678130004675 0.913917862862485 1.0281575957203 1.14239732857811 1.25663706143592 1.37087679429373 1.48511652715154 1.59935626000935 1.71359599286716 1.82783572572497 1.94207545858278 2.05631519144059 2.1705549242984 2.28479465715621 2.39903439001402 2.51327412287184 2.62751385572965 2.74175358858746 2.85599332144527 2.97023305430308 3.08447278716089 3.1987125200187 3.31295225287651 3.42719198573432 3.54143171859213 3.65567145144994 3.76991118430775 3.88415091716557 3.99839065002338 4.11263038288119 4.226870115739 4.34110984859681 4.45534958145462 4.56958931431243 4.68382904717024 4.79806878002805 4.91230851288586 5.02654824574367 5.14078797860148 5.25502771145929 5.3692674443171 5.48350717717491 5.59774691003272 5.71198664289053 5.82622637574834 5.94046610860615 6.05470584146396 6.16894557432177 6.28318530717959 
2 56 57 
p 0.0105333334902922 1 0 3 
2 1 58 
p 0.0105333334902922 1 0 3 
Surfaces 3
1 0 0 0 1 0 0 0 -1 0 0 0 1 
2 0 0 0 1 0 0 0 1 0 0 0 1 3.2000000000000002
1 3 0 0 1 0 0 0 1 0 0 0 1 
Triangulations 3
55 53 1 0.0105333334902922
0 3.2 0 0 3.17914155311536 0.36477251164973 0 3.11683813421547 0.724789655762446 0 3.01390196364648 1.07535805828938 0 2.87167497181235 1.41190752397831 0 2.69201130505978 1.73005061585791 0 2.47725315404506 2.02563985218839 0 2.23020021969694 2.29482177522868 0 1.9540732148334 2.53408718695128 0 1.65247187724468 2.74031689680508 0 1.32932804160604 2.91082238513446 0 0.988854381999832 3.04338085214449 0 0.635489493266386 3.13626419549566 0 0.273840027132288 3.18826153876061 0 -0.0913793625398276 3.19869501705021 0 -0.455407482474512 3.16742861401899 0 -0.813498669419158 3.09486993504626 0 -1.16098465712205 2.98196489347665 0 -1.49333543432216 2.83018537919301 0 -1.80621830037366 2.64151007028088 0 -2.09555434862491 2.41839863793363 0 -2.3575716412045 2.16375968087686 0 -2.58885438199983 1.88091280733591 0 -2.78638744678329 1.57354535886593 0 -2.94759568996752 1.24566434021565 0 -3.07037751556639 0.901544181892571 0 -3.15313227471262 0.545671016424391 0 -3.19478113256363 0.182684194760852 0 -3.19478113256363 -0.182684194760864 0 -3.15313227471262 -0.545671016424403 0 -3.07037751556639 -0.901544181892582 0 -2.94759568996752 -1.24566434021566 0 -2.78638744678328 -1.57354535886594 0 -2.58885438199983 -1.88091280733592 0 -2.35757164120449 -2.16375968087687 0 -2.0955543486249 -2.41839863793363 0 -1.80621830037365 -2.64151007028088 0 -1.49333543432215 -2.83018537919301 0 -1.16098465712204 -2.98196489347665 0 -0.81349866941915 -3.09486993504627 0 -0.455407482474504 -3.16742861401899 0 -0.0913793625398206 -3.19869501705021 0 0.273840027132294 -3.18826153876061 0 0.635489493266391 -3.13626419549566 0 0.988854381999837 -3.04338085214449 0 1.32932804160604 -2.91082238513446 0 1.65247187724468 -2.74031689680508 0 1.9540732148334 -2.53408718695128 0 2.23020021969694 -2.29482177522868 0 2.47725315404506 -2.02563985218838 0 2.69201130505978 -1.73005061585791 0 2.87167497181235 -1.41190752397831 0 3.01390196364648 -1.07535805828938 0 3.11683813421547 -0.724789655762448 0 3.17914155311536 -0.364772511649733 -3.2 -8.88178419700125e-16 -3.17914155311536 0.36477251164973 -3.11683813421547 0.724789655762446 -3.01390196364648 1.07535805828938 -2.87167497181235 1.41190752397831 -2.69201130505978 1.73005061585791 -2.47725315404506 2.02563985218839 -2.23020021969694 2.29482177522868 -1.9540732148334 2.53408718695128 -1.65247187724468 2.74031689680508 -1.32932804160604 2.91082238513446 -0.988854381999832 3.04338085214449 -0.635489493266386 3.13626419549566 -0.273840027132287 3.18826153876061 0.0913793625398278 3.19869501705021 0.455407482474512 3.16742861401899 0.813498669419157 3.09486993504626 1.16098465712205 2.98196489347665 1.49333543432216 2.83018537919301 1.80621830037366 2.64151007028088 2.09555434862491 2.41839863793363 2.3575716412045 2.16375968087686 2.58885438199983 1.88091280733591 2.78638744678329 1.57354535886593 2.94759568996752 1.24566434021565 3.07037751556639 0.901544181892571 3.15313227471262 0.545671016424391 3.19478113256363 0.182684194760852 3.19478113256363 -0.182684194760864 3.15313227471262 -0.545671016424403 3.07037751556639 -0.901544181892582 2.94759568996752 -1.24566434021566 2.78638744678328 -1.57354535886594 2.58885438199983 -1.88091280733592 2.35757164120449 -2.16375968087687 2.0955543486249 -2.41839863793363 1.80621830037365 -2.64151007028088 1.49333543432215 -2.83018537919301 1.16098465712204 -2.98196489347665 0.81349866941915 -3.09486993504627 0.455407482474504 -3.16742861401899 0.0913793625398207 -3.19869501705021 -0.273840027132294 -3.18826153876061 -0.635489493266391 -3.13626419549566 -0.988854381999837 -3.04338085214449 -1.32932804160604 -2.91082238513446 -1.65247187724468 -2.74031689680508 -1.9540732148334 -2.53408718695128 -2.23020021969694 -2.29482177522868 -2.47725315404506 -2.02563985218838 -2.69201130505978 -1.73005061585791 -2.87167497181235 -1.41190752397831 -3.01390196364648 -1.07535805828938 -3.11683813421547 -0.724789655762448 -3.17914155311536 -0.364772511649733 51 50 49 54 52 51 54 53 52 44 46 45 44 47 46 1 55 54 41 43 42 41 44 43 3 2 1 3 48 47 3 49 48 3 51 49 3 54 51 3 1 54 4 47 44 4 3 47 39 41 40 37 39 38 36 39 37 9 6 5 9 7 6 9 8 7 10 9 5 33 35 34 33 36 35 31 36 33 31 33 32 30 39 36 30 36 31 14 12 11 14 13 12 15 5 4 15 11 10 15 10 5 15 14 11 15 4 44 17 16 15 26 28 27 25 29 28 25 28 26 19 18 17 19 30 29 19 17 15 19 15 44 19 44 41 19 41 39 19 39 30 21 20 19 22 24 23 22 25 24 22 19 29 22 29 25 22 21 19 
112 110 1 0.0105333334902922
0 3.2 0 0 3.17914155311536 0.36477251164973 0 3.11683813421547 0.724789655762446 0 3.01390196364648 1.07535805828938 0 2.87167497181235 1.41190752397831 0 2.69201130505978 1.73005061585791 0 2.47725315404506 2.02563985218839 0 2.23020021969694 2.29482177522868 0 1.9540732148334 2.53408718695128 0 1.65247187724468 2.74031689680508 0 1.32932804160604 2.91082238513446 0 0.988854381999832 3.04338085214449 0 0.635489493266386 3.13626419549566 0 0.273840027132288 3.18826153876061 0 -0.0913793625398276 3.19869501705021 0 -0.455407482474512 3.16742861401899 0 -0.813498669419158 3.09486993504626 0 -1.16098465712205 2.98196489347665 0 -1.49333543432216 2.83018537919301 0 -1.80621830037366 2.64151007028088 0 -2.09555434862491 2.41839863793363 0 -2.3575716412045 2.16375968087686 0 -2.58885438199983 1.88091280733591 0 -2.78638744678329 1.57354535886593 0 -2.94759568996752 1.24566434021565 0 -3.07037751556639 0.901544181892571 0 -3.15313227471262 0.545671016424391 0 -3.19478113256363 0.182684194760852 0 -3.19478113256363 -0.182684194760864 0 -3.15313227471262 -0.545671016424403 0 -3.07037751556639 -0.901544181892582 0 -2.94759568996752 -1.24566434021566 0 -2.78638744678328 -1.57354535886594 0 -2.58885438199983 -1.88091280733592 0 -2.35757164120449 -2.16375968087687 0 -2.0955543486249 -2.41839863793363 0 -1.80621830037365 -2.64151007028088 0 -1.49333543432215 -2.83018537919301 0 -1.16098465712204 -2.98196489347665 0 -0.81349866941915 -3.09486993504627 0 -0.455407482474504 -3.16742861401899 0 -0.0913793625398206 -3.19869501705021 0 0.273840027132294 -3.18826153876061 0 0.635489493266391 -3.13626419549566 0 0.988854381999837 -3.04338085214449 0 1.32932804160604 -2.91082238513446 0 1.65247187724468 -2.74031689680508 0 1.9540732148334 -2.53408718695128 0 2.23020021969694 -2.29482177522868 0 2.47725315404506 -2.02563985218838 0 2.69201130505978 -1.73005061585791 0 2.87167497181235 -1.41190752397831 0 3.01390196364648 -1.07535805828938 0 3.11683813421547 -0.724789655762448 0 3.17914155311536 -0.364772511649733 0 3.2 0 3 3.2 0 3 3.2 0 3 3.17914155311536 0.36477251164973 3 3.11683813421547 0.724789655762446 3 3.01390196364648 1.07535805828938 3 2.87167497181235 1.41190752397831 3 2.69201130505978 1.73005061585791 3 2.47725315404506 2.02563985218839 3 2.23020021969694 2.29482177522868 3 1.9540732148334 2.53408718695128 3 1.65247187724468 2.74031689680508 3 1.32932804160604 2.91082238513446 3 0.988854381999832 3.04338085214449 3 0.635489493266386 3.13626419549566 3 0.273840027132288 3.18826153876061 3 -0.0913793625398276 3.19869501705021 3 -0.455407482474512 3.16742861401899 3 -0.813498669419158 3.09486993504626 3 -1.16098465712205 2.98196489347665 3 -1.49333543432216 2.83018537919301 3 -1.80621830037366 2.64151007028088 3 -2.09555434862491 2.41839863793363 3 -2.3575716412045 2.16375968087686 3 -2.58885438199983 1.88091280733591 3 -2.78638744678329 1.57354535886593 3 -2.94759568996752 1.24566434021565 3 -3.07037751556639 0.901544181892571 3 -3.15313227471262 0.545671016424391 3 -3.19478113256363 0.182684194760852 3 -3.19478113256363 -0.182684194760864 3 -3.15313227471262 -0.545671016424403 3 -3.07037751556639 -0.901544181892582 3 -2.94759568996752 -1.24566434021566 3 -2.78638744678328 -1.57354535886594 3 -2.58885438199983 -1.88091280733592 3 -2.35757164120449 -2.16375968087687 3 -2.0955543486249 -2.41839863793363 3 -1.80621830037365 -2.64151007028088 3 -1.49333543432215 -2.83018537919301 3 -1.16098465712204 -2.98196489347665 3 -0.81349866941915 -3.09486993504627 3 -0.455407482474504 -3.16742861401899 3 -0.0913793625398206 -3.19869501705021 3 0.273840027132294 -3.18826153876061 3 0.635489493266391 -3.13626419549566 3 0.988854381999837 -3.04338085214449 3 1.32932804160604 -2.91082238513446 3 1.65247187724468 -2.74031689680508 3 1.9540732148334 -2.53408718695128 3 2.23020021969694 -2.29482177522868 3 2.47725315404506 -2.02563985218838 3 2.69201130505978 -1.73005061585791 3 2.87167497181235 -1.41190752397831 3 3.01390196364648 -1.07535805828938 3 3.11683813421547 -0.724789655762448 3 3.17914155311536 -0.364772511649733 0 0 0.114239732857811 0 0.228479465715621 0 0.342719198573432 0 0.456958931431243 0 0.571198664289053 0 0.685438397146864 0 0.799678130004675 0 0.913917862862485 0 1.0281575957203 0 1.14239732857811 0 1.25663706143592 0 1.37087679429373 0 1.48511652715154 0 1.59935626000935 0 1.71359599286716 0 1.82783572572497 0 1.94207545858278 0 2.05631519144059 0 2.1705549242984 0 2.28479465715621 0 2.39903439001402 0 2.51327412287184 0 2.62751385572965 0 2.74175358858746 0 2.85599332144527 0 2.97023305430308 0 3.08447278716089 0 3.1987125200187 0 3.31295225287651 0 3.42719198573432 0 3.54143171859213 0 3.65567145144994 0 3.76991118430776 0 3.88415091716557 0 3.99839065002338 0 4.11263038288119 0 4.226870115739 0 4.34110984859681 0 4.45534958145462 0 4.56958931431243 0 4.68382904717024 0 4.79806878002805 0 4.91230851288586 0 5.02654824574367 0 5.14078797860148 0 5.25502771145929 0 5.3692674443171 0 5.48350717717491 0 5.59774691003272 0 5.71198664289053 0 5.82622637574834 0 5.94046610860615 0 6.05470584146396 0 6.16894557432177 0 6.28318530717959 0 6.28318530717959 3 0 3 0.114239732857811 3 0.228479465715621 3 0.342719198573432 3 0.456958931431243 3 0.571198664289053 3 0.685438397146864 3 0.799678130004675 3 0.913917862862485 3 1.0281575957203 3 1.14239732857811 3 1.25663706143592 3 1.37087679429373 3 1.48511652715154 3 1.59935626000935 3 1.71359599286716 3 1.82783572572497 3 1.94207545858278 3 2.05631519144059 3 2.1705549242984 3 2.28479465715621 3 2.39903439001402 3 2.51327412287184 3 2.62751385572965 3 2.74175358858746 3 2.85599332144527 3 2.97023305430308 3 3.08447278716089 3 3.1987125200187 3 3.31295225287651 3 3.42719198573432 3 3.54143171859213 3 3.65567145144994 3 3.76991118430776 3 3.88415091716557 3 3.99839065002338 3 4.11263038288119 3 4.226870115739 3 4.34110984859681 3 4.45534958145462 3 4.56958931431243 3 4.68382904717024 3 4.79806878002805 3 4.91230851288586 3 5.02654824574367 3 5.14078797860148 3 5.25502771145929 3 5.3692674443171 3 5.48350717717491 3 5.59774691003272 3 5.71198664289053 3 5.82622637574834 3 5.94046610860615 3 6.05470584146396 3 6.16894557432177 3 59 1 2 59 58 1 60 2 3 60 3 4 60 59 2 61 60 4 62 4 5 62 5 6 62 61 4 63 6 7 63 62 6 64 63 7 65 7 8 65 64 7 66 8 9 66 65 8 67 9 10 67 66 9 68 10 11 68 11 12 68 67 10 69 68 12 70 12 13 70 69 12 71 13 14 71 70 13 72 14 15 72 71 14 73 15 16 73 16 17 73 72 15 74 73 17 75 17 18 75 74 17 76 18 19 76 75 18 77 19 20 77 20 21 77 76 19 78 77 21 79 21 22 79 22 23 79 78 21 80 79 23 81 80 23 81 23 24 82 81 24 82 24 25 83 82 25 83 25 26 84 83 26 84 26 27 84 27 28 85 84 28 86 85 28 86 28 29 87 29 30 87 30 31 87 86 29 88 87 31 89 31 32 89 88 31 90 32 33 90 89 32 91 33 34 91 34 35 91 90 33 92 91 35 93 35 36 93 36 37 93 92 35 94 93 37 95 37 38 95 94 37 96 38 39 96 39 40 96 95 38 97 96 40 98 40 41 98 41 42 98 97 40 99 98 42 100 42 43 100 99 42 101 43 44 101 44 45 101 100 43 102 45 46 102 101 45 103 46 47 103 102 46 104 103 47 105 104 47 105 47 48 106 105 48 106 48 49 106 49 50 107 106 50 107 50 51 108 107 51 109 108 51 109 51 52 110 109 52 110 52 53 111 110 53 111 53 54 112 111 54 112 54 55 112 55 56 57 112 56 
55 53 1 0.0105333334902922
3 3.2 0 3 3.17914155311536 0.36477251164973 3 3.11683813421547 0.724789655762446 3 3.01390196364648 1.07535805828938 3 2.87167497181235 1.41190752397831 3 2.69201130505978 1.73005061585791 3 2.47725315404506 2.02563985218839 3 2.23020021969694 2.29482177522868 3 1.9540732148334 2.53408718695128 3 1.65247187724468 2.74031689680508 3 1.32932804160604 2.91082238513446 3 0.988854381999832 3.04338085214449 3 0.635489493266386 3.13626419549566 3 0.273840027132288 3.18826153876061 3 -0.0913793625398276 3.19869501705021 3 -0.455407482474512 3.16742861401899 3 -0.813498669419158 3.09486993504626 3 -1.16098465712205 2.98196489347665 3 -1.49333543432216 2.83018537919301 3 -1.80621830037366 2.64151007028088 3 -2.09555434862491 2.41839863793363 3 -2.3575716412045 2.16375968087686 3 -2.58885438199983 1.88091280733591 3 -2.78638744678329 1.57354535886593 3 -2.94759568996752 1.24566434021565 3 -3.07037751556639 0.901544181892571 3 -3.15313227471262 0.545671016424391 3 -3.19478113256363 0.182684194760852 3 -3.19478113256363 -0.182684194760864 3 -3.15313227471262 -0.545671016424403 3 -3.07037751556639 -0.901544181892582 3 -2.94759568996752 -1.24566434021566 3 -2.78638744678328 -1.57354535886594 3 -2.58885438199983 -1.88091280733592 3 -2.35757164120449 -2.16375968087687 3 -2.0955543486249 -2.41839863793363 3 -1.80621830037365 -2.64151007028088 3 -1.49333543432215 -2.83018537919301 3 -1.16098465712204 -2.98196489347665 3 -0.81349866941915 -3.09486993504627 3 -0.455407482474504 -3.16742861401899 3 -0.0913793625398206 -3.19869501705021 3 0.273840027132294 -3.18826153876061 3 0.635489493266391 -3.13626419549566 3 0.988854381999837 -3.04338085214449 3 1.32932804160604 -2.91082238513446 3 1.65247187724468 -2.74031689680508 3 1.9540732148334 -2.53408718695128 3 2.23020021969694 -2.29482177522868 3 2.47725315404506 -2.02563985218838 3 2.69201130505978 -1.73005061585791 3 2.87167497181235 -1.41190752397831 3 3.01390196364648 -1.07535805828938 3 3.11683813421547 -0.724789655762448 3 3.17914155311536 -0.364772511649733 3.2 -8.88178419700125e-16 3.17914155311536 0.36477251164973 3.11683813421547 0.724789655762446 3.01390196364648 1.07535805828938 2.87167497181235 1.41190752397831 2.69201130505978 1.73005061585791 2.47725315404506 2.02563985218839 2.23020021969694 2.29482177522868 1.9540732148334 2.53408718695128 1.65247187724468 2.74031689680508 1.32932804160604 2.91082238513446 0.988854381999832 3.04338085214449 0.635489493266386 3.13626419549566 0.273840027132287 3.18826153876061 -0.0913793625398278 3.19869501705021 -0.455407482474512 3.16742861401899 -0.813498669419157 3.09486993504626 -1.16098465712205 2.98196489347665 -1.49333543432216 2.83018537919301 -1.80621830037366 2.64151007028088 -2.09555434862491 2.41839863793363 -2.3575716412045 2.16375968087686 -2.58885438199983 1.88091280733591 -2.78638744678329 1.57354535886593 -2.94759568996752 1.24566434021565 -3.07037751556639 0.901544181892571 -3.15313227471262 0.545671016424391 -3.19478113256363 0.182684194760852 -3.19478113256363 -0.182684194760864 -3.15313227471262 -0.545671016424403 -3.07037751556639 -0.901544181892582 -2.94759568996752 -1.24566434021566 -2.78638744678328 -1.57354535886594 -2.58885438199983 -1.88091280733592 -2.35757164120449 -2.16375968087687 -2.0955543486249 -2.41839863793363 -1.80621830037365 -2.64151007028088 -1.49333543432215 -2.83018537919301 -1.16098465712204 -2.98196489347665 -0.81349866941915 -3.09486993504627 -0.455407482474504 -3.16742861401899 -0.0913793625398207 -3.19869501705021 0.273840027132294 -3.18826153876061 0.635489493266391 -3.13626419549566 0.988854381999837 -3.04338085214449 1.32932804160604 -2.91082238513446 1.65247187724468 -2.74031689680508 1.9540732148334 -2.53408718695128 2.23020021969694 -2.29482177522868 2.47725315404506 -2.02563985218838 2.69201130505978 -1.73005061585791 2.87167497181235 -1.41190752397831 3.01390196364648 -1.07535805828938 3.11683813421547 -0.724789655762448 3.17914155311536 -0.364772511649733 38 36 37 31 32 33 31 33 34 31 34 35 29 30 31 28 35 36 28 38 39 28 36 38 28 31 35 28 29 31 44 39 40 44 40 41 44 41 42 44 42 43 25 26 27 46 44 45 49 46 47 49 47 48 49 44 46 21 22 23 21 23 24 21 24 25 21 25 27 50 44 49 19 21 27 19 20 21 19 27 28 54 50 51 54 51 52 54 52 53 15 16 17 15 17 18 15 18 19 15 19 28 15 28 39 15 39 44 4 2 3 11 12 13 11 13 14 11 14 15 7 4 5 7 5 6 7 2 4 8 1 2 8 9 10 8 10 11 8 44 50 8 50 54 8 15 44 8 11 15 8 54 55 8 55 1 8 2 7 

TShapes 14
Ve
1e-07
0 3.2 0
0 0

0101101
*
Ed
 1e-07 1 1 0
1  1 0 0 6.28318530717959
2  1 2 0 0 6.28318530717959
6  1 2 0
6  2 1 0
0

0101000
+14 3 -14 3 *
Wi

0101100
-13 0 *
Fa
0  1e-07 1 0
2  1
0111000
+12 0 *
Ve
1e-07
3 3.2 0
0 0

0101101
*
Ed
 1e-07 1 1 0
1  2 0 0 6.28318530717959
2  2 2 0 0 6.28318530717959
6  3 2 0
6  4 3 0
0

0101000
+10 3 -10 3 *
Ed
 1e-07 1 1 0
1  3 0 0 3
3  3 4CN 2 8 0 3
7  5 6 2 8
0

0101000
+14 9 -10 9 *
Wi

0101100
+13 0 -9 0 -8 7 +8 7 *
Fa
0  1e-07 2 0
2  2
0111000
+7 0 *
Wi

0101100
+9 0 *
Fa
0  1e-07 3 0
2  3
0111000
+5 0 *
Sh

0101100
+11 0 +6 0 +4 0 *
So

0100000
+3 0 *
Co

1100000
+2 1 *

+1 0 