DBRep_DrawableShape

CASCADE Topology V1, (c) Matra-Datavision
Locations 6
1
              1               0               0               0 
              0               1               0               0 
              0               0               1               0 
1
              1               0               0               0 
              0               1               0               0 
              0               0               1               0 
1
              1               0               0               0 
              0               1               0               0 
              0               0               1               0 
1
              1               0               0               0 
              0               1               0               0 
              0               0               1               0 
2  2 1 3 1 4 -1 0
2  4 1 3 -1 2 -1 0
Curve2ds 6
2 0 0 -1 0 0 1 3.2000000000000028
1 0 0 1 0 
1 0 30 1 0 
2 0 0 1 0 -0 1 3.2000000000000028
1 6.2831853071795862 0 0 1 
1 0 0 0 1 
Curves 3
2 0 0 0 1 0 0 -0 1 0 0 -0 1 3.2000000000000028
2 30 0 0 1 0 0 -0 1 0 0 -0 1 3.2000000000000028
1 0 3.2000000000000028 0 1 0 0 
Polygon3D 0
PolygonOnTriangulations 6
35 1 2 3 4 5 6 7 8 9 10 11 12 13 14 15 16 17 18 19 20 21 22 23 24 25 26 27 28 29 30 31 32 33 34 35 
p 0.0285333337585131 1 0 0.184799567858223 0.369599135716446 0.554398703574669 0.739198271432893 0.923997839291116 1.10879740714934 1.29359697500756 1.47839654286578 1.66319611072401 1.84799567858223 2.03279524644045 2.21759481429868 2.4023943821569 2.58719395001512 2.77199351787335 2.95679308573157 3.14159265358979 3.32639222144802 3.51119178930624 3.69599135716446 3.88079092502268 4.06559049288091 4.25039006073913 4.43518962859735 4.61998919645558 4.8047887643138 4.98958833217203 5.17438790003025 5.35918746788847 5.5439870357467 5.72878660360492 5.91358617146314 6.09838573932137 6.28318530717959 
35 1 2 3 4 5 6 7 8 9 10 11 12 13 14 15 16 17 18 19 20 21 22 23 24 25 26 27 28 29 30 31 32 33 34 1 
p 0.0285333337585131 1 0 0.184799567858223 0.369599135716446 0.554398703574669 0.739198271432893 0.923997839291116 1.10879740714934 1.29359697500756 1.47839654286578 1.66319611072401 1.84799567858223 2.03279524644045 2.21759481429868 2.4023943821569 2.58719395001512 2.77199351787335 2.95679308573157 3.14159265358979 3.32639222144802 3.51119178930624 3.69599135716446 3.88079092502268 4.06559049288091 4.25039006073913 4.43518962859735 4.61998919645558 4.8047887643138 4.98958833217203 5.17438790003025 5.35918746788847 5.5439870357467 5.72878660360492 5.91358617146314 6.09838573932137 6.28318530717959 
35 37 38 39 40 41 42 43 44 45 46 47 48 49 50 51 52 53 54 55 56 57 58 59 60 61 62 63 64 65 66 67 68 69 70 36 
p 0.0285333337585131 1 0 0.184799567858223 0.369599135716446 0.554398703574669 0.739198271432893 0.923997839291116 1.10879740714934 1.29359697500756 1.47839654286578 1.66319611072401 1.84799567858223 2.03279524644045 2.21759481429868 2.4023943821569 2.58719395001512 2.77199351787335 2.95679308573157 3.14159265358979 3.32639222144802 3.51119178930624 3.69599135716446 3.88079092502268 4.06559049288091 4.25039006073913 4.43518962859735 4.61998919645558 4.8047887643138 4.98958833217203 5.17438790003025 5.35918746788847 5.5439870357467 5.72878660360492 5.91358617146314 6.09838573932137 6.28318530717959 
35 1 2 3 4 5 6 7 8 9 10 11 12 13 14 15 16 17 18 19 20 21 22 23 24 25 26 27 28 29 30 31 32 33 34 1 
p 0.0285333337585131 1 0 0.184799567858223 0.369599135716446 0.554398703574669 0.739198271432893 0.923997839291116 1.10879740714934 1.29359697500756 1.47839654286578 1.66319611072401 1.84799567858223 2.03279524644045 2.21759481429868 2.4023943821569 2.58719395001512 2.77199351787335 2.95679308573157 3.14159265358979 3.32639222144802 3.51119178930624 3.69599135716446 3.88079092502268 4.06559049288091 4.25039006073913 4.43518962859735 4.61998919645558 4.8047887643138 4.98958833217203 5.17438790003025 5.35918746788847 5.5439870357467 5.72878660360492 5.91358617146314 6.09838573932137 6.28318530717959 
2 35 36 
p 0.0285333337585131 1 0 30 
2 1 37 
p 0.0285333337585131 1 0 30 
Surfaces 3
1 0 0 0 1 0 0 0 -1 -0 0 -0 1 
2 0 0 0 1 0 0 -0 1 0 0 -0 1 3.2000000000000028
1 30 0 0 1 0 0 -0 1 0 0 -0 1 
Triangulations 3
34 32 1 0.0285333337585131
0 3.2 0 0 3.14551391898849 0.587998457013026 0 2.98391113409394 1.15597333179889 0 2.72069483433477 1.68458292120754 0 2.36482853510611 2.15582605966899 0 1.92843083641362 2.55365512729677 0 1.42636273848492 2.8645225323362 0 0.875721568230666 3.07784205815302 0 0.295258750282567 3.18634936414411 0 -0.295258750282566 3.18634936414411 0 -0.875721568230665 3.07784205815302 0 -1.42636273848492 2.8645225323362 0 -1.92843083641362 2.55365512729677 0 -2.36482853510611 2.15582605966899 0 -2.72069483433477 1.68458292120754 0 -2.98391113409394 1.15597333179889 0 -3.14551391898849 0.587998457013028 0 -3.2 3.23405791876756e-15 0 -3.14551391898849 -0.587998457013022 0 -2.98391113409394 -1.15597333179889 0 -2.72069483433477 -1.68458292120754 0 -2.36482853510611 -2.15582605966898 0 -1.92843083641362 -2.55365512729677 0 -1.42636273848493 -2.8645225323362 0 -0.875721568230667 -3.07784205815302 0 -0.295258750282566 -3.18634936414411 0 0.295258750282568 -3.18634936414411 0 0.875721568230668 -3.07784205815302 0 1.42636273848493 -2.8645225323362 0 1.92843083641363 -2.55365512729677 0 2.36482853510612 -2.15582605966898 0 2.72069483433477 -1.68458292120753 0 2.98391113409394 -1.15597333179888 0 3.14551391898849 -0.587998457013016 -3.2 -8.88178419700125e-16 -3.14551391898849 0.587998457013026 -2.98391113409394 1.15597333179889 -2.72069483433477 1.68458292120754 -2.36482853510611 2.15582605966899 -1.92843083641362 2.55365512729677 -1.42636273848492 2.8645225323362 -0.875721568230666 3.07784205815302 -0.295258750282567 3.18634936414411 0.295258750282565 3.18634936414411 0.875721568230665 3.07784205815302 1.42636273848492 2.8645225323362 1.92843083641362 2.55365512729677 2.36482853510611 2.15582605966899 2.72069483433477 1.68458292120754 2.98391113409394 1.15597333179889 3.14551391898849 0.587998457013029 3.2 3.10862446895044e-15 3.14551391898849 -0.587998457013022 2.98391113409394 -1.15597333179889 2.72069483433477 -1.68458292120754 2.36482853510611 -2.15582605966898 1.92843083641363 -2.55365512729677 1.42636273848493 -2.8645225323362 0.875721568230666 -3.07784205815302 0.295258750282566 -3.18634936414411 -0.295258750282568 -3.18634936414411 -0.875721568230668 -3.07784205815302 -1.42636273848493 -2.8645225323362 -1.92843083641363 -2.55365512729677 -2.36482853510612 -2.15582605966898 -2.72069483433477 -1.68458292120753 -2.98391113409394 -1.15597333179888 -3.14551391898849 -0.587998457013016 28 30 29 28 31 30 28 32 31 27 32 28 1 34 33 24 26 25 4 2 1 4 3 2 22 24 23 22 27 26 22 26 24 20 22 21 20 27 22 8 7 6 9 5 4 9 6 5 9 1 33 9 4 1 9 8 6 18 20 19 11 10 9 12 11 9 15 17 16 15 18 17 14 13 12 14 33 32 14 32 27 14 20 18 14 9 33 14 27 20 14 18 15 14 12 9 
70 68 1 0.0285333337585131
0 3.2 0 0 3.14551391898849 0.587998457013026 0 2.98391113409394 1.15597333179889 0 2.72069483433477 1.68458292120754 0 2.36482853510611 2.15582605966899 0 1.92843083641362 2.55365512729677 0 1.42636273848492 2.8645225323362 0 0.875721568230666 3.07784205815302 0 0.295258750282567 3.18634936414411 0 -0.295258750282566 3.18634936414411 0 -0.875721568230665 3.07784205815302 0 -1.42636273848492 2.8645225323362 0 -1.92843083641362 2.55365512729677 0 -2.36482853510611 2.15582605966899 0 -2.72069483433477 1.68458292120754 0 -2.98391113409394 1.15597333179889 0 -3.14551391898849 0.587998457013028 0 -3.2 3.23405791876756e-15 0 -3.14551391898849 -0.587998457013022 0 -2.98391113409394 -1.15597333179889 0 -2.72069483433477 -1.68458292120754 0 -2.36482853510611 -2.15582605966898 0 -1.92843083641362 -2.55365512729677 0 -1.42636273848493 -2.8645225323362 0 -0.875721568230667 -3.07784205815302 0 -0.295258750282566 -3.18634936414411 0 0.295258750282568 -3.18634936414411 0 0.875721568230668 -3.07784205815302 0 1.42636273848493 -2.8645225323362 0 1.92843083641363 -2.55365512729677 0 2.36482853510612 -2.15582605966898 0 2.72069483433477 -1.68458292120753 0 2.98391113409394 -1.15597333179888 0 3.14551391898849 -0.587998457013016 0 3.2 0 30 3.2 0 30 3.2 0 30 3.14551391898849 0.587998457013026 30 2.98391113409394 1.15597333179889 30 2.72069483433477 1.68458292120754 30 2.36482853510611 2.15582605966899 30 1.92843083641362 2.55365512729677 30 1.42636273848492 2.8645225323362 30 0.875721568230666 3.07784205815302 30 0.295258750282567 3.18634936414411 30 -0.295258750282566 3.18634936414411 30 -0.875721568230665 3.07784205815302 30 -1.42636273848492 2.8645225323362 30 -1.92843083641362 2.55365512729677 30 -2.36482853510611 2.15582605966899 30 -2.72069483433477 1.68458292120754 30 -2.98391113409394 1.15597333179889 30 -3.14551391898849 0.587998457013028 30 -3.2 3.23405791876756e-15 30 -3.14551391898849 -0.587998457013022 30 -2.98391113409394 -1.15597333179889 30 -2.72069483433477 -1.68458292120754 30 -2.36482853510611 -2.15582605966898 30 -1.92843083641362 -2.55365512729677 30 -1.42636273848493 -2.8645225323362 30 -0.875721568230667 -3.07784205815302 30 -0.295258750282566 -3.18634936414411 30 0.295258750282568 -3.18634936414411 30 0.875721568230668 -3.07784205815302 30 1.42636273848493 -2.8645225323362 30 1.92843083641363 -2.55365512729677 30 2.36482853510612 -2.15582605966898 30 2.72069483433477 -1.68458292120753 30 2.98391113409394 -1.15597333179888 30 3.14551391898849 -0.587998457013016 0 0 0.184799567858223 0 0.369599135716446 0 0.554398703574669 0 0.739198271432893 0 0.923997839291116 0 1.10879740714934 0 1.29359697500756 0 1.47839654286578 0 1.66319611072401 0 1.84799567858223 0 2.03279524644045 0 2.21759481429868 0 2.4023943821569 0 2.58719395001512 0 2.77199351787335 0 2.95679308573157 0 3.14159265358979 0 3.32639222144802 0 3.51119178930624 0 3.69599135716446 0 3.88079092502268 0 4.06559049288091 0 4.25039006073913 0 4.43518962859735 0 4.61998919645558 0 4.8047887643138 0 4.98958833217203 0 5.17438790003025 0 5.35918746788847 0 5.5439870357467 0 5.72878660360492 0 5.91358617146314 0 6.09838573932137 0 6.28318530717959 0 6.28318530717959 30 0 30 0.184799567858223 30 0.369599135716446 30 0.554398703574669 30 0.739198271432893 30 0.923997839291116 30 1.10879740714934 30 1.29359697500756 30 1.47839654286578 30 1.66319611072401 30 1.84799567858223 30 2.03279524644045 30 2.21759481429868 30 2.4023943821569 30 2.58719395001512 30 2.77199351787335 30 2.95679308573157 30 3.14159265358979 30 3.32639222144802 30 3.51119178930624 30 3.69599135716446 30 3.88079092502268 30 4.06559049288091 30 4.25039006073913 30 4.43518962859735 30 4.61998919645558 30 4.8047887643138 30 4.98958833217203 30 5.17438790003025 30 5.35918746788847 30 5.5439870357467 30 5.72878660360492 30 5.91358617146314 30 6.09838573932137 30 37 1 2 38 2 3 38 37 2 39 38 3 40 3 4 40 39 3 41 4 5 41 40 4 42 5 6 42 6 7 42 41 5 43 42 7 44 43 7 44 7 8 45 44 8 45 8 9 46 9 10 46 45 9 47 10 11 47 46 10 48 11 12 48 47 11 49 12 13 49 48 12 50 13 14 50 14 15 50 49 13 51 50 15 52 15 16 52 51 15 53 16 17 53 52 16 54 17 18 54 53 17 55 18 19 55 54 18 56 19 20 56 55 19 57 20 21 57 56 20 58 21 22 58 22 23 58 57 21 59 58 23 60 23 24 60 59 23 61 24 25 61 60 24 62 25 26 62 61 25 63 26 27 63 62 26 64 27 28 64 63 27 65 28 29 65 29 30 65 64 28 66 65 30 67 30 31 67 66 30 68 31 32 68 67 31 69 32 33 69 68 32 70 69 33 70 33 34 36 70 34 36 34 35 
34 32 1 0.0285333337585131
30 3.2 0 30 3.14551391898849 0.587998457013026 30 2.98391113409394 1.15597333179889 30 2.72069483433477 1.68458292120754 30 2.36482853510611 2.15582605966899 30 1.92843083641362 2.55365512729677 30 1.42636273848492 2.8645225323362 30 0.875721568230666 3.07784205815302 30 0.295258750282567 3.18634936414411 30 -0.295258750282566 3.18634936414411 30 -0.875721568230665 3.07784205815302 30 -1.42636273848492 2.8645225323362 30 -1.92843083641362 2.55365512729677 30 -2.36482853510611 2.15582605966899 30 -2.72069483433477 1.68458292120754 30 -2.98391113409394 1.15597333179889 30 -3.14551391898849 0.587998457013028 30 -3.2 3.23405791876756e-15 30 -3.14551391898849 -0.587998457013022 30 -2.98391113409394 -1.15597333179889 30 -2.72069483433477 -1.68458292120754 30 -2.36482853510611 -2.15582605966898 30 -1.92843083641362 -2.55365512729677 30 -1.42636273848493 -2.8645225323362 30 -0.875721568230667 -3.07784205815302 30 -0.295258750282566 -3.18634936414411 30 0.295258750282568 -3.18634936414411 30 0.875721568230668 -3.07784205815302 30 1.42636273848493 -2.8645225323362 30 1.92843083641363 -2.55365512729677 30 2.36482853510612 -2.15582605966898 30 2.72069483433477 -1.68458292120753 30 2.98391113409394 -1.15597333179888 30 3.14551391898849 -0.587998457013016 3.2 -8.88178419700125e-16 3.14551391898849 0.587998457013026 2.98391113409394 1.15597333179889 2.72069483433477 1.68458292120754 2.36482853510611 2.15582605966899 1.92843083641362 2.55365512729677 1.42636273848492 2.8645225323362 0.875721568230666 3.07784205815302 0.295258750282567 3.18634936414411 -0.295258750282565 3.18634936414411 -0.875721568230665 3.07784205815302 -1.42636273848492 2.8645225323362 -1.92843083641362 2.55365512729677 -2.36482853510611 2.15582605966899 -2.72069483433477 1.68458292120754 -2.98391113409394 1.15597333179889 -3.14551391898849 0.587998457013029 -3.2 3.10862446895044e-15 -3.14551391898849 -0.587998457013022 -2.98391113409394 -1.15597333179889 -2.72069483433477 -1.68458292120754 -2.36482853510611 -2.15582605966898 -1.92843083641362 -2.55365512729677 -1.42636273848493 -2.8645225323362 -0.875721568230666 -3.07784205815302 -0.295258750282566 -3.18634936414411 0.295258750282568 -3.18634936414411 0.875721568230668 -3.07784205815302 1.42636273848493 -2.8645225323362 1.92843083641363 -2.55365512729677 2.36482853510612 -2.15582605966898 2.72069483433477 -1.68458292120753 2.98391113409394 -1.15597333179888 3.14551391898849 -0.587998457013016 24 22 23 26 24 25 17 18 19 17 19 20 17 20 21 28 21 22 28 26 27 28 22 24 28 24 26 14 15 16 14 16 17 14 17 21 31 28 29 31 29 30 13 14 21 12 13 21 33 31 32 33 28 31 34 28 33 8 9 10 8 10 11 8 11 12 3 1 2 4 1 3 6 7 8 6 21 28 6 12 21 6 8 12 5 6 28 5 34 1 5 28 34 5 1 4 

TShapes 14
Ve
1e-07
0 3.2 0
0 0

0101101
*
Ed
 1e-07 1 1 0
1  1 0 0 6.28318530717959
2  1 1 0 0 6.28318530717959
2  2 2 0 0 6.28318530717959
6  1 2 0
6  2 1 0
0

0101000
+14 5 -14 5 *
Wi

0101100
-13 0 *
Fa
0  1e-07 1 0
2  1
0101000
+12 0 *
Ve
1e-07
30 3.2 0
0 0

0101101
*
Ed
 1e-07 1 1 0
1  2 0 0 6.28318530717959
2  3 2 0 0 6.28318530717959
2  4 3 0 0 6.28318530717959
6  3 2 0
6  4 3 0
0

0101000
+10 5 -10 5 *
Ed
 1e-07 1 1 0
1  3 0 0 30
3  5 6CN 2 6 0 30
7  5 6 2 6
0

0101000
+14 0 -10 0 *
Wi

0101100
+13 0 -9 0 -8 5 +8 5 *
Fa
0  1e-07 2 0
2  2
0101000
+7 0 *
Wi

0101100
+9 0 *
Fa
0  1e-07 3 0
2  3
0101000
+5 0 *
Sh

0101100
+11 0 +6 0 +4 0 *
So

0100000
+3 0 *
Co

1100000
+2 1 *

+1 0 